<svg xmlns="http://www.w3.org/2000/svg" xmlns:xlink="http://www.w3.org/1999/xlink" viewBox="0 0 1176.07 251.62" width="1176.07" height="251.62"><defs><style>.cls-1{fill:none;}.cls-2{fill:#ffd400;}.cls-3{clip-path:url(#clip-path);}.cls-4{fill:#fff;}</style><clipPath id="clip-path"><path class="cls-1" d="M125,0h0A125,125,0,0,0,0,125H0A125,125,0,0,0,125,250h0A125,125,0,0,0,250,125h0A125,125,0,0,0,125,0"></path></clipPath></defs><g id="&#x56FE;&#x5C42;_2" data-name="&#x56FE;&#x5C42; 2"><g id="&#x56FE;&#x5C42;_1-2" data-name="&#x56FE;&#x5C42; 1"><path d="M876.7,200.45c15,0,27.84-5.33,37.21-15.45v12.68h24.32V142.44c0-.31,0-.62,0-.93l0-.8C937.35,107.76,911.92,82.9,879,82.9H876.7c-31.24,0-56.65,26.37-56.65,58.77S845.46,200.45,876.7,200.45Zm-32.33-58.78c0-20,14.91-35.08,34.66-35.08s34.88,15.08,34.88,35.08-15,35.09-34.88,35.09S844.37,161.67,844.37,141.67Z"></path><path d="M707.5,185c9.37,10.14,22.18,15.48,37.26,15.48,31.27,0,56.72-26.4,56.72-58.85S776,82.75,744.76,82.75c-15.08,0-27.88,5.34-37.26,15.48V43H683.15V197.68H707.5Zm0-43.37c0-20,15-35.14,34.92-35.14s34.71,15.11,34.71,35.14-14.93,35.14-34.71,35.14S707.5,161.63,707.5,141.6Z"></path><polygon points="1100.7 151.62 1144.64 197.29 1145.01 197.68 1176.07 197.68 1120.78 139.93 1174.52 85.52 1142.47 85.52 1100.7 128.25 1100.7 42.99 1076.35 42.99 1076.35 197.68 1100.7 197.68 1100.7 151.62"></polygon><path d="M607.16,200.84c32.06,0,57.41-24,59-55.78.05-1,.08-2,.08-3.07s0-2.05-.08-3.07c-1.57-31.8-26.92-55.78-59-55.78h0c-33,0-58.85,25.85-58.85,58.85S574.16,200.84,607.16,200.84ZM572.66,142a38.54,38.54,0,0,1,.68-7.24c3.17-16.56,16.76-27.68,33.82-27.68,19.79,0,34.71,15,34.71,34.92a36.72,36.72,0,0,1-2.56,13.65c-.07.18-.15.35-.23.52l-.14.32a33.5,33.5,0,0,1-2.84,5.33c-6.33,9.6-16.88,15.1-28.94,15.1-17.06,0-30.65-11.12-33.82-27.68A38.47,38.47,0,0,1,572.66,142Z"></path><path d="M353,82.75c-28.56,0-50.94,21.48-50.94,48.9v66h24.31v-66c0-14.24,11.45-25,26.63-25s26.64,10.73,26.64,25v66H404v-66C404,104.23,381.58,82.75,353,82.75Z"></path><path d="M980.12,131.65c0-14.24,11.45-25,26.63-25s26.64,10.73,26.64,25v66h24.31v-66c0-27.42-22.38-48.9-51-48.9s-50.94,21.48-50.94,48.9v66h24.31Z"></path><path d="M509.48,162.43l19.28,17.16c-12.53,16.77-34.32,21.2-47.24,21.2-32.38,0-58.41-26.22-58.41-59a58.42,58.42,0,0,1,58.41-58.61c28.92,0,48.2,21.21,50.71,39.71l-72.3,46.27a37.3,37.3,0,0,0,21.4,8.3C492.71,178,504.85,172.26,509.48,162.43Zm-63-21.21a32.06,32.06,0,0,0,1.73,10.6L504.47,116c-5.21-6.36-13.31-9.83-22.75-9.83A34.89,34.89,0,0,0,446.44,141.22Z"></path><path class="cls-2" d="M125,0h0A125,125,0,0,0,0,125H0A125,125,0,0,0,125,250h0A125,125,0,0,0,250,125h0A125,125,0,0,0,125,0"></path><g class="cls-3"><path class="cls-4" d="M36.19,251.62V237.46A20.45,20.45,0,0,1,46.05,220l-.22-24.27V72.5a6.23,6.23,0,0,1,4.21-6,6.73,6.73,0,0,1,2.26-.39,6.09,6.09,0,0,1,4.82,2.32L74.44,89.31H176.63L194,68.43a6.08,6.08,0,0,1,4.81-2.32,6.68,6.68,0,0,1,2.26.39,6.24,6.24,0,0,1,4.22,6V100l-.3,6.85a20.34,20.34,0,0,1,8.87,16.86V251.62Z"></path><path class="cls-4" d="M38.19,244.23v-6.77a18.51,18.51,0,0,1,9.87-16.35l-.23-25.45V72.5a4.38,4.38,0,0,1,7.75-2.8L73.5,91.31H177.57L195.48,69.7a4.39,4.39,0,0,1,7.76,2.8V100l-.35,7.9a18.51,18.51,0,0,1,8.92,15.81V244.23Z"></path><path class="cls-2" d="M127.36,181.37a37.39,37.39,0,0,1,6,14.23h34.28V181.37Z"></path><path class="cls-2" d="M47.83,181.37V195.6H59.38a37.39,37.39,0,0,1,6-14.23Z"></path><path d="M109,128a3.61,3.61,0,0,0,1.26-7,91.43,91.43,0,0,0-39.6-5.47,3.61,3.61,0,0,0,.61,7.19,83.09,83.09,0,0,1,36.46,5A3.52,3.52,0,0,0,109,128"></path><path d="M145.77,137.05a2,2,0,0,0-1.72,2.33,10.86,10.86,0,0,1-2.53,8c-2.7,3.14-7.34,4.87-13.8,5.19v-13a18.08,18.08,0,0,0,7.79-4.37,2,2,0,1,0-2.84-3c-1,1-4.22,3.45-7,3.45s-6-2.49-7-3.45a2,2,0,0,0-2.84,3,20.19,20.19,0,0,0,2.94,2.26,14.86,14.86,0,0,0,4.85,2.11v13c-6.57-.27-11.3-2-14-5.15a10.87,10.87,0,0,1-2.58-8.07,2,2,0,0,0-4.05-.6,15.11,15.11,0,0,0,3.48,11.3c3.81,4.42,10.23,6.66,19.09,6.66h.21c8.75,0,15.1-2.28,18.88-6.66a15.06,15.06,0,0,0,3.48-11.3,2.06,2.06,0,0,0-2.33-1.72"></path><path d="M54.29,131.27l19.26,1.29h.09a1.27,1.27,0,0,0,.08-2.53l-19.26-1.29a1.27,1.27,0,0,0-1.35,1.18,1.26,1.26,0,0,0,1.18,1.35"></path><path d="M77.29,139.68a1.26,1.26,0,0,0-1.42-1.09l-23.26,3.06a1.27,1.27,0,0,0,.16,2.52h.17l23.26-3a1.28,1.28,0,0,0,1.09-1.43"></path><path d="M76.44,146.34l-20,8a1.27,1.27,0,0,0,.94,2.35l20-8.05a1.27,1.27,0,1,0-1-2.35"></path><path class="cls-2" d="M96.34,235.5c17.5,0,33-15.17,32.57-33-.48-18.5-15-32.38-32.54-32.38s-32.71,14.7-32.71,32.2,15.18,33.2,32.68,33.2"></path><path class="cls-4" d="M74.76,233.59A37.86,37.86,0,0,1,62.88,220a18.47,18.47,0,0,0-24.69,17.4v6.78h37V237.4a18.45,18.45,0,0,0-.39-3.81"></path><path class="cls-4" d="M202.89,107.84v11.43a2.52,2.52,0,0,1-5,0V105.73a18.56,18.56,0,0,0-9,0v13.54a2.52,2.52,0,0,1-5,0V107.84a18.47,18.47,0,0,0-8.91,15.8v84h-7.22V195.6H133.35a37.66,37.66,0,0,1-51,42.13v13.89H211.81v-128a18.48,18.48,0,0,0-8.92-15.8"></path><path class="cls-2" d="M200.84,131.32a8.24,8.24,0,0,1-11.08,11.08,7.14,7.14,0,0,1-3.48-3.48,8.24,8.24,0,0,1,11.08-11.08,7.18,7.18,0,0,1,3.48,3.48"></path><path class="cls-2" d="M62.08,91.23a1.64,1.64,0,0,0,1.08-2.64l-4.65-6.45c-1.86-2.57-5.5-1.06-5.5,2.29v5.19a1.52,1.52,0,0,0,1.4,1.61Z"></path><path class="cls-2" d="M188,91.23A1.64,1.64,0,0,1,187,88.59l4.65-6.45c1.85-2.57,5.5-1.06,5.5,2.29v5.19a1.52,1.52,0,0,1-1.41,1.61Z"></path><path d="M219,132.18v-8.54a25.6,25.6,0,0,0-8.57-19.13V72.45A11.6,11.6,0,0,0,189.93,65L174.17,84H76.89L61.13,65a11.6,11.6,0,0,0-20.52,7.41V217.36a25.67,25.67,0,0,0-9.63,20v14.22h7.21V237.4a18.5,18.5,0,0,1,18.48-18.48A18.26,18.26,0,0,1,62.88,220a37.86,37.86,0,0,0,11.88,13.59,18.45,18.45,0,0,1,.39,3.81v14.22h7.22V237.73A37.69,37.69,0,1,0,59.82,211.9a25.14,25.14,0,0,0-3.15-.19,25.46,25.46,0,0,0-8.84,1.57V72.45a4.38,4.38,0,0,1,7.75-2.8L73.5,91.26H177.57l17.91-21.61a4.39,4.39,0,0,1,7.76,2.8V99.94A25.7,25.7,0,0,0,169,115.36,91.64,91.64,0,0,0,141.52,121a3.61,3.61,0,0,0,1.26,7,3.56,3.56,0,0,0,1.27-.23,83.07,83.07,0,0,1,23.6-5.14c0,.32,0,.65,0,1v84h7.22v-84a18.47,18.47,0,0,1,8.91-15.8v11.43a2.52,2.52,0,0,0,5,0V105.73a18.56,18.56,0,0,1,9,0v13.54a2.52,2.52,0,0,0,5,0V107.84a18.48,18.48,0,0,1,8.92,15.8v128H219V132.18ZM96.37,171a31.74,31.74,0,1,1-31.74,31.74A31.78,31.78,0,0,1,96.37,171"></path><path d="M102.3,205.9l2.21,2a8.32,8.32,0,0,1-6.39,2.8,8.23,8.23,0,0,1,0-16.46,7,7,0,0,1,7,5.34l-10.82,6.83A5.59,5.59,0,0,0,98.09,208,4.72,4.72,0,0,0,102.3,205.9Zm-9.72-3.51a5.1,5.1,0,0,0,.41,2l9-5.64a4.52,4.52,0,0,0-3.86-1.92A5.54,5.54,0,0,0,92.58,202.39Z"></path><path d="M107.08,202.44a8.24,8.24,0,1,1,8.21,8.26A8.2,8.2,0,0,1,107.08,202.44Zm13.71,0a5.48,5.48,0,1,0-5.5,5.51A5.5,5.5,0,0,0,120.79,202.44Z"></path><path d="M79.64,194.14a7,7,0,0,0-7.24,7v9.38h3v-9.13a4.29,4.29,0,0,1,8.57,0v9.13h2.95V201.1A7,7,0,0,0,79.64,194.14Z"></path></g></g></g></svg>